<svg width="16" height="17" viewBox="0 0 16 17" fill="none" xmlns="http://www.w3.org/2000/svg">
<g clip-path="url(#clip0_216_1204)">
<path opacity="0.4" fill-rule="evenodd" clip-rule="evenodd" d="M6.12208 4.31265L5.93535 3.69478L4.96998 0.5L2.88965 2.58033L3.14089 3.41183L3.32278 3.46679L6.12208 4.31265Z" fill="white"/>
<path opacity="0.4" fill-rule="evenodd" clip-rule="evenodd" d="M4.13813 6.72052L6.21846 4.64014L3.24008 3.74018L2.08013 3.38965L-0.000244141 5.47002L3.19454 6.43543L4.13813 6.72052Z" fill="white"/>
<path fill-rule="evenodd" clip-rule="evenodd" d="M5.45947 9.04187L8.5419 5.95948L8.83289 5.66848C9.09373 5.40764 9.09373 4.98086 8.83289 4.72006L7.34559 3.23271C7.08475 2.97191 6.65796 2.97191 6.39716 3.23271L6.16452 3.46535L6.44964 4.40891L6.82826 4.03029L7.43181 4.63384L4.13383 7.93178L3.53028 7.32823L3.90894 6.94962L3.11191 6.70882L2.96534 6.66453L2.73274 6.89713C2.4719 7.15793 2.4719 7.58472 2.73274 7.84556L4.22005 9.33287C4.48089 9.59371 4.90767 9.59371 5.16848 9.33287L5.45947 9.04187Z" fill="white"/>
<path fill-rule="evenodd" clip-rule="evenodd" d="M9.70578 8.56811C10.0318 8.24205 9.99777 7.73934 9.70578 7.3825L8.72365 6.18213L5.68164 9.2241L6.88205 10.2063C7.23889 10.4982 7.7416 10.5323 8.06762 10.2063L9.70578 8.56811ZM6.94624 8.77259L8.2721 7.44669L8.85199 8.02657C8.90038 8.07492 8.90038 8.15642 8.85199 8.20481L7.70436 9.35244C7.65597 9.40083 7.57447 9.40083 7.52609 9.35244L6.94624 8.77259Z" fill="white"/>
<path opacity="0.4" fill-rule="evenodd" clip-rule="evenodd" d="M10.1945 12.7922L12.2917 10.695L11.2245 9.34668L8.84619 11.725L10.1945 12.7922Z" fill="white"/>
<path fill-rule="evenodd" clip-rule="evenodd" d="M11.8681 14.8522L14.3519 12.3684L14.9058 11.8145C15.1084 11.6119 15.1084 11.2804 14.9058 11.0777L12.568 8.73987C12.3654 8.53723 12.0338 8.53723 11.8312 8.73987L11.428 9.1431L12.6737 10.717L10.2168 13.1739L8.64284 11.9282L8.23961 12.3315C8.03701 12.5341 8.03697 12.8656 8.23961 13.0682L10.5775 15.4061C10.7801 15.6087 11.1116 15.6087 11.3142 15.4061L11.8681 14.8522Z" fill="white"/>
<path opacity="0.4" fill-rule="evenodd" clip-rule="evenodd" d="M15.9999 14.0162L14.554 12.5703L12.0702 15.0541L13.5161 16.5L15.9999 14.0162Z" fill="white"/>
</g>
<defs>
<clipPath id="clip0_216_1204">
<rect width="16" height="16" fill="white" transform="translate(-0.000244141 0.5)"/>
</clipPath>
</defs>
</svg>
