<svg width="16" height="17" viewBox="0 0 16 17" fill="none" xmlns="http://www.w3.org/2000/svg">
<g clip-path="url(#clip0_216_1166)">
<path opacity="0.4" d="M4.99976 9.5C4.99976 10.6031 5.89663 11.5 6.99976 11.5H13.9998C15.1029 11.5 15.9998 10.6031 15.9998 9.5V2.5C15.9998 1.39688 15.1029 0.5 13.9998 0.5H6.99976C5.89663 0.5 4.99976 1.39688 4.99976 2.5V9.5Z" fill="#5E88D8"/>
<path d="M-0.000244141 14.5C-0.000244141 15.6031 0.896631 16.5 1.99976 16.5H8.99976C10.1029 16.5 10.9998 15.6031 10.9998 14.5V7.5C10.9998 6.39688 10.1029 5.5 8.99976 5.5H1.99976C0.896631 5.5 -0.000244141 6.39688 -0.000244141 7.5V14.5Z" fill="#5E88D8"/>
</g>
<defs>
<clipPath id="clip0_216_1166">
<rect width="16" height="16" fill="white" transform="translate(-0.000244141 0.5)"/>
</clipPath>
</defs>
</svg>
