<svg width="16" height="17" viewBox="0 0 16 17" fill="none" xmlns="http://www.w3.org/2000/svg">
<path d="M8.31289 3.7703L6.97956 2.43697C6.78422 2.24164 6.78422 1.92524 6.97956 1.72997C7.17489 1.5347 7.49129 1.53464 7.68656 1.72997L9.01989 3.0633C9.21522 3.25864 9.21522 3.57504 9.01989 3.7703C8.92222 3.86797 8.79429 3.91677 8.66636 3.91677C8.53842 3.91677 8.41056 3.86797 8.31289 3.7703ZM14.4998 4.7501C14.4998 4.47404 14.2758 4.2501 13.9998 4.2501H13.0246C13.0822 4.02877 13.0352 3.78544 12.8617 3.61204L11.8045 2.55484C11.5442 2.2945 11.122 2.2945 10.8617 2.55484L9.16642 4.2501H7.26236C7.03929 3.38897 6.26396 2.7501 5.33309 2.7501C4.40222 2.7501 3.62689 3.38897 3.40382 4.2501H1.99976C1.72369 4.2501 1.49976 4.47404 1.49976 4.7501C1.49976 5.02617 1.72369 5.2501 1.99976 5.2501H13.9998C14.2758 5.2501 14.4998 5.02617 14.4998 4.7501Z" fill="white"/>
<path opacity="0.4" d="M13.333 14.0835V6.0835H2.66638V14.0835C2.66638 14.8199 3.26332 15.4168 3.99972 15.4168H11.9997C12.7361 15.4168 13.333 14.8199 13.333 14.0835ZM5.83305 12.7502C5.83305 13.0262 5.60912 13.2502 5.33305 13.2502C5.05698 13.2502 4.83305 13.0262 4.83305 12.7502V7.41683C4.83305 7.14076 5.05698 6.91683 5.33305 6.91683C5.60912 6.91683 5.83305 7.14076 5.83305 7.41683V12.7502ZM8.49972 12.7502C8.49972 13.0262 8.27578 13.2502 7.99972 13.2502C7.72365 13.2502 7.49972 13.0262 7.49972 12.7502V7.41683C7.49972 7.14076 7.72365 6.91683 7.99972 6.91683C8.27578 6.91683 8.49972 7.14076 8.49972 7.41683V12.7502ZM11.1664 12.7502C11.1664 13.0262 10.9424 13.2502 10.6664 13.2502C10.3903 13.2502 10.1664 13.0262 10.1664 12.7502V7.41683C10.1664 7.14076 10.3903 6.91683 10.6664 6.91683C10.9424 6.91683 11.1664 7.14076 11.1664 7.41683V12.7502Z" fill="white"/>
</svg>
