<svg width="14" height="14" viewBox="0 0 14 14" fill="none" xmlns="http://www.w3.org/2000/svg">
<g clip-path="url(#clip0_216_376)">
<path d="M5.6875 1.75C6.20458 1.75 6.7166 1.85185 7.19432 2.04972C7.67204 2.2476 8.1061 2.53764 8.47173 2.90327C8.83736 3.2689 9.1274 3.70296 9.32528 4.18068C9.52315 4.6584 9.625 5.17042 9.625 5.6875C9.625 6.20458 9.52315 6.7166 9.32528 7.19432C9.1274 7.67204 8.83736 8.1061 8.47173 8.47173C8.1061 8.83736 7.67204 9.1274 7.19432 9.32528C6.7166 9.52315 6.20458 9.625 5.6875 9.625C5.17042 9.625 4.6584 9.52315 4.18068 9.32528C3.70296 9.1274 3.2689 8.83736 2.90327 8.47173C2.53764 8.1061 2.2476 7.67204 2.04972 7.19432C1.85185 6.7166 1.75 6.20458 1.75 5.6875C1.75 5.17042 1.85185 4.6584 2.04972 4.18068C2.2476 3.70296 2.53764 3.2689 2.90327 2.90327C3.2689 2.53764 3.70296 2.2476 4.18068 2.04972C4.6584 1.85185 5.17042 1.75 5.6875 1.75ZM5.6875 11.375C7.19592 11.375 8.64256 10.7758 9.70917 9.70917C10.7758 8.64256 11.375 7.19592 11.375 5.6875C11.375 4.17908 10.7758 2.73244 9.70917 1.66583C8.64256 0.599217 7.19592 0 5.6875 0C4.17908 0 2.73244 0.599217 1.66583 1.66583C0.599217 2.73244 0 4.17908 0 5.6875C0 7.19592 0.599217 8.64256 1.66583 9.70917C2.73244 10.7758 4.17908 11.375 5.6875 11.375Z" fill="#A1A1A1"/>
<path d="M9.04257 10.2812L12.507 13.7429C12.8488 14.0847 13.4039 14.0847 13.7457 13.7429C14.0875 13.4011 14.0875 12.846 13.7457 12.5042L10.2812 9.04248C9.93398 9.51553 9.51562 9.93389 9.04257 10.2812Z" fill="#A1A1A1"/>
</g>
<defs>
<clipPath id="clip0_216_376">
<rect width="14" height="14" fill="white"/>
</clipPath>
</defs>
</svg>
