<svg width="17" height="14" viewBox="0 0 17 14" fill="none" xmlns="http://www.w3.org/2000/svg">
<g clip-path="url(#clip0_216_1244)">
<path opacity="0.4" d="M7.70979 3.11768C7.42229 3.53018 6.94229 3.80018 6.39979 3.80018C6.35229 3.80018 6.30729 3.79768 6.25979 3.79518L6.98979 5.35768C6.34479 5.86018 5.87479 6.57518 5.68979 7.40018H3.78479C3.91979 7.63518 3.99979 7.90768 3.99979 8.20018C3.99979 8.49268 3.92229 8.76518 3.78479 9.00018H5.68729C6.05229 10.6027 7.48479 11.8002 9.19729 11.8002C10.2173 11.8002 11.1398 11.3752 11.7948 10.6927L13.5998 11.7727C13.6098 11.1827 13.9398 10.6702 14.4223 10.4002L12.6223 9.32018C12.7373 8.96768 12.7998 8.59018 12.7998 8.20018C12.7998 7.69268 12.6948 7.20768 12.5048 6.77018L14.5548 5.26518C14.0423 5.04018 13.6723 4.55268 13.6098 3.97518L11.5573 5.48018C10.9248 4.93268 10.1023 4.60018 9.19979 4.60018C8.93979 4.60018 8.68479 4.62768 8.43979 4.68018L7.70979 3.11768ZM9.19979 7.00018C9.51805 7.00018 9.82328 7.1266 10.0483 7.35165C10.2734 7.57669 10.3998 7.88192 10.3998 8.20018C10.3998 8.51844 10.2734 8.82366 10.0483 9.0487C9.82328 9.27375 9.51805 9.40018 9.19979 9.40018C8.88153 9.40018 8.57631 9.27375 8.35126 9.0487C8.12622 8.82366 7.99979 8.51844 7.99979 8.20018C7.99979 7.88192 8.12622 7.57669 8.35126 7.35165C8.57631 7.1266 8.88153 7.00018 9.19979 7.00018Z" fill="#2585EC"/>
<path d="M6.3998 3.8001C6.82415 3.8001 7.23112 3.63153 7.53118 3.33147C7.83123 3.03141 7.9998 2.62444 7.9998 2.2001C7.9998 1.77575 7.83123 1.36879 7.53118 1.06873C7.23112 0.768669 6.82415 0.600098 6.3998 0.600098C5.97546 0.600098 5.56849 0.768669 5.26843 1.06873C4.96838 1.36879 4.7998 1.77575 4.7998 2.2001C4.7998 2.62444 4.96838 3.03141 5.26843 3.33147C5.56849 3.63153 5.97546 3.8001 6.3998 3.8001ZM15.1998 5.4001C15.6242 5.4001 16.0311 5.23153 16.3312 4.93147C16.6312 4.63141 16.7998 4.22444 16.7998 3.8001C16.7998 3.37575 16.6312 2.96879 16.3312 2.66873C16.0311 2.36867 15.6242 2.2001 15.1998 2.2001C14.7755 2.2001 14.3685 2.36867 14.0684 2.66873C13.7684 2.96879 13.5998 3.37575 13.5998 3.8001C13.5998 4.22444 13.7684 4.63141 14.0684 4.93147C14.3685 5.23153 14.7755 5.4001 15.1998 5.4001ZM16.7998 11.8001C16.7998 11.3758 16.6312 10.9688 16.3312 10.6687C16.0311 10.3687 15.6242 10.2001 15.1998 10.2001C14.7755 10.2001 14.3685 10.3687 14.0684 10.6687C13.7684 10.9688 13.5998 11.3758 13.5998 11.8001C13.5998 12.2244 13.7684 12.6314 14.0684 12.9315C14.3685 13.2315 14.7755 13.4001 15.1998 13.4001C15.6242 13.4001 16.0311 13.2315 16.3312 12.9315C16.6312 12.6314 16.7998 12.2244 16.7998 11.8001ZM2.3998 9.8001C2.82415 9.8001 3.23112 9.63153 3.53118 9.33147C3.83123 9.03141 3.9998 8.62444 3.9998 8.2001C3.9998 7.77575 3.83123 7.36879 3.53118 7.06873C3.23112 6.76867 2.82415 6.6001 2.3998 6.6001C1.97546 6.6001 1.56849 6.76867 1.26843 7.06873C0.968376 7.36879 0.799805 7.77575 0.799805 8.2001C0.799805 8.62444 0.968376 9.03141 1.26843 9.33147C1.56849 9.63153 1.97546 9.8001 2.3998 9.8001Z" fill="#2585EC"/>
</g>
<defs>
<clipPath id="clip0_216_1244">
<rect width="16" height="12.8" fill="white" transform="translate(0.799805 0.600098)"/>
</clipPath>
</defs>
</svg>
