<svg width="12" height="17" viewBox="0 0 12 17" fill="none" xmlns="http://www.w3.org/2000/svg">
<g clip-path="url(#clip0_216_1215)">
<path opacity="0.4" d="M0.499756 2.5C0.499756 1.39688 1.39663 0.5 2.49976 0.5H9.49976C10.6029 0.5 11.4998 1.39688 11.4998 2.5V14.5C11.4998 15.6031 10.6029 16.5 9.49976 16.5H2.49976C1.39663 16.5 0.499756 15.6031 0.499756 14.5V2.5ZM6.99976 14.5C6.99976 14.2348 6.8944 13.9804 6.70686 13.7929C6.51933 13.6054 6.26497 13.5 5.99976 13.5C5.73454 13.5 5.48019 13.6054 5.29265 13.7929C5.10511 13.9804 4.99976 14.2348 4.99976 14.5C4.99976 14.7652 5.10511 15.0196 5.29265 15.2071C5.48019 15.3946 5.73454 15.5 5.99976 15.5C6.26497 15.5 6.51933 15.3946 6.70686 15.2071C6.8944 15.0196 6.99976 14.7652 6.99976 14.5ZM9.49976 2.5H2.49976V12.5H9.49976V2.5Z" fill="white"/>
<path d="M2.49976 2.5H9.49976V12.5H2.49976V2.5Z" fill="white"/>
</g>
<defs>
<clipPath id="clip0_216_1215">
<rect width="12" height="16" fill="white" transform="translate(-0.000244141 0.5)"/>
</clipPath>
</defs>
</svg>
