<svg width="17" height="14" viewBox="0 0 17 14" fill="none" xmlns="http://www.w3.org/2000/svg">
<g clip-path="url(#clip0_216_1154)">
<path opacity="0.4" d="M5.59985 2.2001C5.59985 1.3176 6.31735 0.600098 7.19985 0.600098H15.1999C16.0824 0.600098 16.7999 1.3176 16.7999 2.2001V7.8001C16.7999 8.6826 16.0824 9.4001 15.1999 9.4001H7.19985C6.31735 9.4001 5.59985 8.6826 5.59985 7.8001V2.2001ZM12.1999 3.0001C11.9999 3.0001 11.8124 3.1001 11.6999 3.2676L10.2999 5.3676L9.86735 4.8251C9.75235 4.6826 9.57985 4.6001 9.39985 4.6001C9.21985 4.6001 9.04485 4.6826 8.93235 4.8251L7.33235 6.8251C7.18735 7.0051 7.15985 7.2526 7.25985 7.4601C7.35985 7.6676 7.56985 7.8001 7.79985 7.8001H9.79985H10.9999H14.5999C14.8224 7.8001 15.0249 7.6776 15.1299 7.4826C15.2349 7.2876 15.2224 7.0501 15.0999 6.8676L12.6999 3.2676C12.5874 3.1001 12.3999 3.0001 12.1999 3.0001ZM8.39985 3.8001C8.61203 3.8001 8.81551 3.71581 8.96554 3.56578C9.11557 3.41575 9.19985 3.21227 9.19985 3.0001C9.19985 2.78792 9.11557 2.58444 8.96554 2.43441C8.81551 2.28438 8.61203 2.2001 8.39985 2.2001C8.18768 2.2001 7.9842 2.28438 7.83417 2.43441C7.68414 2.58444 7.59985 2.78792 7.59985 3.0001C7.59985 3.21227 7.68414 3.41575 7.83417 3.56578C7.9842 3.71581 8.18768 3.8001 8.39985 3.8001Z" fill="white"/>
<path d="M12.6998 3.2675L15.0998 6.8675C15.2223 7.0525 15.2348 7.2875 15.1298 7.4825C15.0248 7.6775 14.8223 7.8 14.5998 7.8H10.9998H9.7998H7.7998C7.5698 7.8 7.3598 7.6675 7.2598 7.46C7.1598 7.2525 7.1873 7.005 7.3323 6.825L8.9323 4.825C9.0473 4.6825 9.21731 4.6 9.39981 4.6C9.5823 4.6 9.75481 4.6825 9.8673 4.825L10.2998 5.365L11.6998 3.265C11.8123 3.1 11.9998 3 12.1998 3C12.3998 3 12.5873 3.1 12.6998 3.2675ZM2.3998 3.8H5.5998V5.4C5.1573 5.4 4.7998 5.7575 4.7998 6.2V11C4.7998 11.4425 5.1573 11.8 5.5998 11.8H8.7998C9.2423 11.8 9.5998 11.4425 9.5998 11V9.4H13.5998V11.8C13.5998 12.6825 12.8823 13.4 11.9998 13.4H2.3998C1.5173 13.4 0.799805 12.6825 0.799805 11.8V5.4C0.799805 4.5175 1.5173 3.8 2.3998 3.8ZM2.5998 5.4C2.3798 5.4 2.1998 5.58 2.1998 5.8V6.2C2.1998 6.42 2.3798 6.6 2.5998 6.6H2.9998C3.2198 6.6 3.3998 6.42 3.3998 6.2V5.8C3.3998 5.58 3.2198 5.4 2.9998 5.4H2.5998ZM2.5998 8C2.3798 8 2.1998 8.18 2.1998 8.4V8.8C2.1998 9.02 2.3798 9.2 2.5998 9.2H2.9998C3.2198 9.2 3.3998 9.02 3.3998 8.8V8.4C3.3998 8.18 3.2198 8 2.9998 8H2.5998ZM2.5998 10.6C2.3798 10.6 2.1998 10.78 2.1998 11V11.4C2.1998 11.62 2.3798 11.8 2.5998 11.8H2.9998C3.2198 11.8 3.3998 11.62 3.3998 11.4V11C3.3998 10.78 3.2198 10.6 2.9998 10.6H2.5998ZM10.9998 11V11.4C10.9998 11.62 11.1798 11.8 11.3998 11.8H11.7998C12.0198 11.8 12.1998 11.62 12.1998 11.4V11C12.1998 10.78 12.0198 10.6 11.7998 10.6H11.3998C11.1798 10.6 10.9998 10.78 10.9998 11Z" fill="white"/>
</g>
<defs>
<clipPath id="clip0_216_1154">
<rect width="16" height="12.8" fill="white" transform="translate(0.799805 0.600098)"/>
</clipPath>
</defs>
</svg>
