<svg width="27" height="24" viewBox="0 0 27 24" fill="none" xmlns="http://www.w3.org/2000/svg">
<g filter="url(#filter0_dd_216_1254)">
<rect x="2.99976" width="24" height="24" rx="4" fill="#2E2F3F" shape-rendering="crispEdges"/>
<rect x="3.49976" y="0.5" width="23" height="23" rx="3.5" stroke="#35364D" shape-rendering="crispEdges"/>
<path d="M22.7593 9.97617C22.9737 9.78238 23.0576 9.4792 22.9582 9.20727C22.8214 8.83532 22.6567 8.479 22.4672 8.13518L22.3211 7.88201C22.116 7.53819 21.886 7.21313 21.6343 6.90682C21.451 6.68177 21.1464 6.60676 20.8729 6.69428L19.142 7.24751C18.7255 6.92557 18.2656 6.65677 17.7746 6.45048L17.3861 4.66576C17.324 4.38132 17.1064 4.15628 16.8205 4.1094C16.3917 4.03751 15.9504 4 15.4998 4C15.0491 4 14.6079 4.03751 14.179 4.1094C13.8931 4.15628 13.6755 4.38132 13.6134 4.66576L13.2249 6.45048C12.7339 6.65364 12.274 6.92245 11.8576 7.24438L10.1266 6.69115C9.85311 6.60363 9.54855 6.68177 9.3652 6.90369C9.11348 7.21 8.88351 7.53507 8.6784 7.87888L8.53234 8.13206C8.34277 8.47587 8.17807 8.83219 8.04133 9.20414C7.94188 9.47607 8.02579 9.77925 8.24022 9.97304L9.58584 11.2045C9.55166 11.4671 9.53301 11.7328 9.53301 12.0016C9.53301 12.2704 9.55166 12.536 9.58584 12.7955L8.24022 14.027C8.02579 14.2207 7.94188 14.5239 8.04133 14.7959C8.17807 15.1678 8.34277 15.5241 8.53234 15.8679L8.6784 16.1211C8.88351 16.4649 9.11348 16.79 9.3652 17.0963C9.54855 17.3214 9.85311 17.3964 10.1266 17.3088L11.8576 16.7556C12.274 17.0776 12.7339 17.3464 13.2249 17.5495L13.6134 19.3342C13.6755 19.6187 13.8931 19.8437 14.179 19.8906C14.6079 19.9625 15.0491 20 15.4998 20C15.9504 20 16.3917 19.9625 16.8205 19.8906C17.1064 19.8437 17.324 19.6187 17.3861 19.3342L17.7746 17.5495C18.2656 17.3464 18.7255 17.0776 19.142 16.7556L20.8729 17.3088C21.1464 17.3964 21.451 17.3182 21.6343 17.0963C21.886 16.79 22.116 16.4649 22.3211 16.1211L22.4672 15.8679C22.6567 15.5241 22.8183 15.1678 22.9582 14.7959C23.0576 14.5239 22.9737 14.2207 22.7593 14.027L21.4137 12.7955C21.4479 12.536 21.4665 12.2704 21.4665 12.0016C21.4665 11.7328 21.4479 11.4671 21.4137 11.2077L22.7593 9.97617ZM15.4998 9.00098C16.291 9.00098 17.0498 9.31711 17.6093 9.87983C18.1688 10.4425 18.4831 11.2058 18.4831 12.0016C18.4831 12.7974 18.1688 13.5606 17.6093 14.1233C17.0498 14.686 16.291 15.0021 15.4998 15.0021C14.7085 15.0021 13.9497 14.686 13.3902 14.1233C12.8307 13.5606 12.5164 12.7974 12.5164 12.0016C12.5164 11.2058 12.8307 10.4425 13.3902 9.87983C13.9497 9.31711 14.7085 9.00098 15.4998 9.00098Z" fill="#5E88D8"/>
</g>
<defs>
<filter id="filter0_dd_216_1254" x="-0.000244141" y="-3" width="32" height="32" filterUnits="userSpaceOnUse" color-interpolation-filters="sRGB">
<feFlood flood-opacity="0" result="BackgroundImageFix"/>
<feColorMatrix in="SourceAlpha" type="matrix" values="0 0 0 0 0 0 0 0 0 0 0 0 0 0 0 0 0 0 127 0" result="hardAlpha"/>
<feOffset dx="2" dy="2"/>
<feGaussianBlur stdDeviation="1.5"/>
<feComposite in2="hardAlpha" operator="out"/>
<feColorMatrix type="matrix" values="0 0 0 0 0 0 0 0 0 0 0 0 0 0 0 0 0 0 0.1 0"/>
<feBlend mode="normal" in2="BackgroundImageFix" result="effect1_dropShadow_216_1254"/>
<feColorMatrix in="SourceAlpha" type="matrix" values="0 0 0 0 0 0 0 0 0 0 0 0 0 0 0 0 0 0 127 0" result="hardAlpha"/>
<feOffset dx="-1" dy="-1"/>
<feGaussianBlur stdDeviation="1"/>
<feComposite in2="hardAlpha" operator="out"/>
<feColorMatrix type="matrix" values="0 0 0 0 1 0 0 0 0 1 0 0 0 0 1 0 0 0 0.06 0"/>
<feBlend mode="normal" in2="effect1_dropShadow_216_1254" result="effect2_dropShadow_216_1254"/>
<feBlend mode="normal" in="SourceGraphic" in2="effect2_dropShadow_216_1254" result="shape"/>
</filter>
</defs>
</svg>
