<svg width="16" height="17" viewBox="0 0 16 17" fill="none" xmlns="http://www.w3.org/2000/svg">
<g clip-path="url(#clip0_216_1218)">
<path opacity="0.4" d="M14.931 4.5C15.6123 5.67812 15.9998 7.04375 15.9998 8.5C15.9998 12.9187 12.4185 16.5 7.99976 16.5C3.58101 16.5 -0.000244141 12.9187 -0.000244141 8.5C-0.000244141 4.08125 3.58101 0.5 7.99976 0.5C9.52163 0.5 10.9435 0.925 12.1529 1.6625C12.2123 1.7875 12.2904 1.9 12.381 2C11.9998 2.42813 11.8904 3.04063 12.1123 3.575C12.3435 4.13438 12.8904 4.5 13.4966 4.5H14.9279H14.931ZM7.99976 3C7.99976 3.275 8.22476 3.5 8.49976 3.5H9.29351L8.14663 4.64687C8.00288 4.79063 7.96226 5.00625 8.03726 5.19063C8.11226 5.375 8.29663 5.5 8.49976 5.5H10.4998C10.7748 5.5 10.9998 5.275 10.9998 5C10.9998 4.725 10.7748 4.5 10.4998 4.5H9.70601L10.8529 3.35313C10.9966 3.20938 11.0373 2.99375 10.9623 2.80938C10.8873 2.625 10.7029 2.5 10.4998 2.5H8.49976C8.22476 2.5 7.99976 2.725 7.99976 3ZM7.99976 13.75C8.33128 13.75 8.64922 13.6183 8.88364 13.3839C9.11806 13.1495 9.24976 12.8315 9.24976 12.5C9.24976 12.1685 9.11806 11.8505 8.88364 11.6161C8.64922 11.3817 8.33128 11.25 7.99976 11.25C7.66824 11.25 7.35029 11.3817 7.11587 11.6161C6.88145 11.8505 6.74976 12.1685 6.74976 12.5C6.74976 12.8315 6.88145 13.1495 7.11587 13.3839C7.35029 13.6183 7.66824 13.75 7.99976 13.75ZM9.89976 7.95C9.73413 7.72812 9.42163 7.68437 9.19976 7.85C8.97788 8.01562 8.93413 8.32812 9.09976 8.55C10.0498 9.81563 11.9498 9.81563 12.8998 8.55C13.0654 8.32812 13.0216 8.01562 12.7998 7.85C12.5779 7.68437 12.2654 7.72812 12.0998 7.95C11.5498 8.68437 10.4498 8.68437 9.89976 7.95ZM6.09976 7.95C5.54976 8.68437 4.44976 8.68437 3.89976 7.95C3.73413 7.72812 3.42163 7.68437 3.19976 7.85C2.97788 8.01562 2.93413 8.32812 3.09976 8.55C4.04976 9.81563 5.94976 9.81563 6.89976 8.55C7.06538 8.32812 7.02163 8.01562 6.79976 7.85C6.57788 7.68437 6.26538 7.72812 6.09976 7.95Z" fill="white"/>
<path d="M12.9998 1C12.9998 1.275 13.2248 1.5 13.4998 1.5H14.2935L13.1467 2.64687C13.0029 2.79062 12.9623 3.00625 13.0373 3.19062C13.1123 3.375 13.2967 3.5 13.4998 3.5H15.4998C15.7748 3.5 15.9998 3.275 15.9998 3C15.9998 2.725 15.7748 2.5 15.4998 2.5H14.706L15.8529 1.35312C15.9967 1.20937 16.0373 0.99375 15.9623 0.809375C15.8873 0.625 15.7029 0.5 15.4998 0.5H13.4998C13.2248 0.5 12.9998 0.725 12.9998 1ZM7.9998 3C7.9998 3.275 8.2248 3.5 8.4998 3.5H9.29355L8.14667 4.64687C8.00292 4.79063 7.9623 5.00625 8.0373 5.19063C8.1123 5.375 8.29667 5.5 8.4998 5.5H10.4998C10.7748 5.5 10.9998 5.275 10.9998 5C10.9998 4.725 10.7748 4.5 10.4998 4.5H9.70605L10.8529 3.35313C10.9967 3.20938 11.0373 2.99375 10.9623 2.80938C10.8873 2.625 10.7029 2.5 10.4998 2.5H8.4998C8.2248 2.5 7.9998 2.725 7.9998 3ZM12.0998 7.95C11.5498 8.68437 10.4498 8.68437 9.8998 7.95C9.73417 7.72812 9.42167 7.68437 9.1998 7.85C8.97792 8.01562 8.93417 8.32812 9.0998 8.55C10.0498 9.81563 11.9498 9.81563 12.8998 8.55C13.0654 8.32812 13.0217 8.01562 12.7998 7.85C12.5779 7.68437 12.2654 7.72812 12.0998 7.95ZM3.8998 7.95C3.73417 7.72812 3.42167 7.68437 3.1998 7.85C2.97792 8.01562 2.93417 8.32812 3.0998 8.55C4.0498 9.81563 5.9498 9.81563 6.8998 8.55C7.06542 8.32812 7.02167 8.01562 6.7998 7.85C6.57792 7.68437 6.26542 7.72812 6.0998 7.95C5.5498 8.68437 4.4498 8.68437 3.8998 7.95Z" fill="white"/>
</g>
<defs>
<clipPath id="clip0_216_1218">
<rect width="16" height="16" fill="white" transform="translate(-0.000244141 0.5)"/>
</clipPath>
</defs>
</svg>
